<svg xmlns="http://www.w3.org/2000/svg" viewBox="0 0 455.34 131.3"><defs><style>.cls-1{fill:#231815;}</style></defs><g id="레이어_2" data-name="레이어 2"><path class="cls-1" d="M0,63a72.55,72.55,0,0,1,2.49-18.5Q4.9,35.63,8.28,32.4a8.35,8.35,0,0,1,7.76-2,9.68,9.68,0,0,1,3.66,2.2c1.17,1.07,1.76,2,1.76,2.71a3.09,3.09,0,0,1-.55,1.43,9.2,9.2,0,0,1-1.43,1.79,16.71,16.71,0,0,0-2.74,3.92,35.84,35.84,0,0,0-2.09,6,36.87,36.87,0,0,0-1.06,5.24q-.33,2.59-.48,7-.36,11.58,1.61,15.9t5.86.44q4.17-4.62,9.12-14.54a109.45,109.45,0,0,0,7.51-19q.95-3.15,2.19-4.1A5.74,5.74,0,0,1,44,38.55a8.69,8.69,0,0,1,4.73,2.57,4.06,4.06,0,0,1,.91,1.28,6.66,6.66,0,0,1,.29,2.16c0,1,0,2.64,0,4.83a106.71,106.71,0,0,0,2.78,24,37.82,37.82,0,0,0,1.76,5.72,11.26,11.26,0,0,0,2.42,3.44c1.76,2,1.39,3.74-1.1,5a5.24,5.24,0,0,1-2.05.74,9.37,9.37,0,0,1-2.64-.37q-6-1.4-8.86-9.23c-1-2.88-1.93-4.42-2.71-4.61S37.6,75,36,77.3a37.6,37.6,0,0,1-5.31,5.9,25.3,25.3,0,0,1-5.68,4.06A18.89,18.89,0,0,1,19,88.69a16.38,16.38,0,0,1-5.86-.48Q0,84,0,63Z"/><path class="cls-1" d="M59.11,84.26a58.73,58.73,0,0,1-1.32-10.84q-.43-7.62-.44-16.15t.58-14.54c.44-4.64,1.07-7.94,1.87-9.89a5.8,5.8,0,0,1,3.77-3.66q4.18-1.68,8.5,2.86a13.51,13.51,0,0,1,2,2.38,34.44,34.44,0,0,1,2.2,3.95c.86,1.74,2,4.21,3.55,7.44Q87.6,63.17,90,65t3.11-8.68q.43-3.36.84-7.65T94.56,41c.29-4.39.78-7.47,1.46-9.22s2.15-2.74,4.4-2.93c2.53-.3,4.18.1,4.94,1.17s1.13,2.78,1.13,5.13q.15,5-.29,13.25T105.07,64a65.15,65.15,0,0,1-1.43,9.81,12.92,12.92,0,0,1-3.12,4.84,12.72,12.72,0,0,1-4.65,3.15A10,10,0,0,1,86,80.27q-4.62-3.42-10.18-13.22c-1.08-1.86-2-3.43-2.82-4.73a13.13,13.13,0,0,0-1.51-2.16q-.21-.07-.51.18a2.34,2.34,0,0,0-.51.77c-.25.25-.37,1.48-.37,3.7s.12,5.68.37,10.37L71,88.07l-1.17,1A4.65,4.65,0,0,1,67,90.15a7.64,7.64,0,0,1-7.87-5.89Z"/><path class="cls-1" d="M151.76,93.08a6.09,6.09,0,0,1-1-1.21q-1.68-2.62-2.78-16c-.15-2-.33-3.67-.55-5.16a23.18,23.18,0,0,0-.48-2.67q-.51-1.17-1.86,0a38.22,38.22,0,0,0-4.51,5.49,47.55,47.55,0,0,1-8.46,9.3,14.74,14.74,0,0,1-7.87,3.15q-8.28.74-12-4.83t-2-15.9q3.36-18.3,15-27.53,8.36-6.45,17.58-3.81a6,6,0,0,1,.88.22c1.36.39,2.37.64,3,.77a1.72,1.72,0,0,0,1.32-.11,2.6,2.6,0,0,0,.66-1.1.21.21,0,0,1,.07-.15c.2-.54.49-1.4.88-2.6s.78-2.48,1.17-3.84a51.57,51.57,0,0,1,3.7-9.75,37.13,37.13,0,0,1,4.8-7.69q5.13-5.92,11.28-3.22,5.56,2.26.8,7.62-9,10.18-10.32,39.33-.3,7.24-.08,16.92t.88,18.16l.37,4.47L160.77,94a6,6,0,0,1-3.67,1.1,7,7,0,0,1-5.34-2ZM139.6,52.43c1.17-1.78,1.76-3.13,1.76-4.06a5.6,5.6,0,0,0-1-3q-2.72-5.5-8.57,2.78a42.34,42.34,0,0,0-5.86,11,29.5,29.5,0,0,0-2.05,10.76c.1.78.44,1.17,1,1.17q1.17,0,8.79-10.4Q137.84,55.11,139.6,52.43Z"/><path class="cls-1" d="M177,79.28Q165.82,67,172.19,48.37,179.66,30.13,197,30.72q9.45.95,13.26,6.59t.21,13.33q-5.78,10.77-20.87,12.16c-1.17.14-2.21.29-3.11.44a5.57,5.57,0,0,0-1.72.44c-.44.44-.57,1.41-.37,2.93a16.31,16.31,0,0,0,1.39,4.68A17.47,17.47,0,0,0,189,75.76a10.47,10.47,0,0,0,4.07,2.78,16.28,16.28,0,0,0,6,.66,30.35,30.35,0,0,0,7.11-1.09q6.36-2,9.37.58c1.37,1.32,1.62,2.71.77,4.18s-2.6,2.58-5.24,3.37a42.62,42.62,0,0,1-17.79,1.24A26.94,26.94,0,0,1,177,79.28Zm21-33.84c.74-2.78.32-4.59-1.24-5.42q-1.9-.81-4.76,1.61a22,22,0,0,0-5.06,6.52q-2.26,4.4-.14,5.57c1.12.92,3,.56,5.78-1.1A11,11,0,0,0,198,45.44Z"/><path class="cls-1" d="M220.83,96.34a149,149,0,0,1,2.49-27.83q.44-2.34.69-4.32a14.17,14.17,0,0,0,.18-2.71,2.24,2.24,0,0,0-.25-.95,1.11,1.11,0,0,0-.66-.44,7.33,7.33,0,0,0-1.5-.22q-6-1-6-7.33,0-5.26,8.06-7.47c1.17-.39,2.26-.77,3.26-1.13a9.39,9.39,0,0,0,2-.92c2.15-1.54,2.79-4.74,2.93-5.56,1.18-6.86,10.69-27.33,21.82-34.76A14.53,14.53,0,0,1,262.63,0,8.11,8.11,0,0,1,268,2.12a5.69,5.69,0,0,1,1.76,3.26c.2,2.64-2.94,4.1-7.17,7.79A65.07,65.07,0,0,0,250,29.2c-.37.67-.79,1.5-1.37,2.65a38,38,0,0,0-2.27,5.53,3.41,3.41,0,0,0-.19,2.31c.22.46,1,.76,2.42.88s3.67.16,6.85.11a59.69,59.69,0,0,1,10.66.58c2.27.44,3.81,1.23,4.65,2.35A7.27,7.27,0,0,1,272,46.46a6.86,6.86,0,0,1,.07,3,3.08,3.08,0,0,1-.8,1.79,4.75,4.75,0,0,1-2.67.7c-1.4.1-3.7.14-6.93.14a70.64,70.64,0,0,0-10.21.48c-1.83.32-2.8.94-2.9,1.87a12.13,12.13,0,0,0,.66,3.66q.81,3.07,2.27,7.69,1.47,4.4,2.64,8.64c.78,2.84,1.32,5,1.61,6.38q4.47,22.41-1.46,37.06-2.87,6.87-6.23,9.88a15.69,15.69,0,0,1-7.18,3.23,14.77,14.77,0,0,1-7.76-.44Q220.83,126.37,220.83,96.34Zm22.92,4a86.81,86.81,0,0,0-2.49-22.19,46.2,46.2,0,0,0-1.72-5.35c-.56-1.37-1.06-2.13-1.5-2.27q-1.32-.66-2.64,7.76A100.18,100.18,0,0,0,234.59,89q-.21,6.81,0,13.29a61.33,61.33,0,0,0,.81,9.27q2.34,10.83,5,5.34Q243.53,111.28,243.75,100.3Z"/><path class="cls-1" d="M272.9,84.33Q271.51,82.07,271,77t-.47-16.92a171.19,171.19,0,0,1,.62-17.43,23.53,23.53,0,0,1,2.16-8.35,6.2,6.2,0,0,1,4.14-3.23,8.43,8.43,0,0,1,5.82.88q4.32,1.83,2.42,6.23-1.47,4.39-2.2,13.84t-.62,19.12a70.79,70.79,0,0,0,1.28,14.57,2.71,2.71,0,0,1-1.06,2.49,4.2,4.2,0,0,1-2.9,1.17c-.44,0-.94-.12-1.5-.22a5.63,5.63,0,0,1-1.35-.36A9,9,0,0,1,272.9,84.33ZM275,19.4a3.79,3.79,0,0,1-1.06-1.21,6.4,6.4,0,0,1,0-5,13.49,13.49,0,0,1,3.18-5.13,6.48,6.48,0,0,1,4.62-2.23,8.42,8.42,0,0,1,3.26.69,6.83,6.83,0,0,1,2.53,1.72,2.41,2.41,0,0,1,.69,2.49A26.54,26.54,0,0,1,286,16.07a21.9,21.9,0,0,1-1.83,3.26,3.77,3.77,0,0,1-1.69,1.35,6.32,6.32,0,0,1-2.85.59,8.73,8.73,0,0,1-3.08-.88A6.85,6.85,0,0,1,275,19.4Z"/><path class="cls-1" d="M292.09,84.26a58.73,58.73,0,0,1-1.32-10.84q-.43-7.62-.44-16.15t.59-14.54q.66-7,1.86-9.89a5.81,5.81,0,0,1,3.78-3.66q4.17-1.68,8.49,2.86a13.14,13.14,0,0,1,2,2.38,36.05,36.05,0,0,1,2.2,3.95c.85,1.74,2,4.21,3.55,7.44Q320.58,63.17,323,65t3.11-8.68q.45-3.36.85-7.65t.62-7.66c.29-4.39.78-7.47,1.46-9.22s2.15-2.74,4.4-2.93c2.54-.3,4.18.1,4.94,1.17a9,9,0,0,1,1.14,5.13c.09,3.36,0,7.78-.3,13.25s-.67,10.65-1.13,15.53a63.83,63.83,0,0,1-1.43,9.81,14.16,14.16,0,0,1-7.76,8,10,10,0,0,1-9.89-1.5q-4.62-3.42-10.18-13.22c-1.08-1.86-2-3.43-2.82-4.73a14.17,14.17,0,0,0-1.5-2.16c-.15,0-.32,0-.52.18a2.34,2.34,0,0,0-.51.77c-.24.25-.36,1.48-.36,3.7s.12,5.68.36,10.37L304,88.07l-1.17,1a4.7,4.7,0,0,1-2.9,1.06,7.65,7.65,0,0,1-7.87-5.89Z"/><path class="cls-1" d="M351.49,79.28Q340.36,67,346.73,48.37q7.47-18.24,24.75-17.65,9.45.95,13.26,6.59T385,50.64q-5.79,10.77-20.87,12.16c-1.18.14-2.21.29-3.12.44a5.76,5.76,0,0,0-1.72.44c-.44.44-.56,1.41-.36,2.93a16.31,16.31,0,0,0,1.39,4.68,17.47,17.47,0,0,0,3.26,4.47,10.44,10.44,0,0,0,4.06,2.78,16.33,16.33,0,0,0,6,.66,30.18,30.18,0,0,0,7.1-1.09q6.38-2,9.38.58,2,2,.77,4.18c-.86,1.46-2.6,2.58-5.24,3.37a42.67,42.67,0,0,1-17.8,1.24A26.91,26.91,0,0,1,351.49,79.28Zm21-33.84c.73-2.78.32-4.59-1.25-5.42-1.27-.54-2.85,0-4.76,1.61a21.93,21.93,0,0,0-5.05,6.52q-2.26,4.4-.15,5.57c1.13.92,3.05.56,5.79-1.1A11.05,11.05,0,0,0,372.51,45.44Z"/><path class="cls-1" d="M433.59,93.08a5.7,5.7,0,0,1-1-1.21q-1.69-2.62-2.79-16c-.14-2-.33-3.67-.54-5.16a23.18,23.18,0,0,0-.48-2.67c-.34-.78-1-.78-1.87,0a39.1,39.1,0,0,0-4.5,5.49,47.86,47.86,0,0,1-8.46,9.3,14.77,14.77,0,0,1-7.88,3.15q-8.26.74-12-4.83T392,65.21q3.38-18.3,15-27.53,8.34-6.45,17.57-3.81a5.39,5.39,0,0,1,.88.22c1.37.39,2.37.64,3,.77a1.68,1.68,0,0,0,1.31-.11,2.41,2.41,0,0,0,.66-1.1.22.22,0,0,1,.08-.15c.19-.54.48-1.4.88-2.6s.78-2.48,1.17-3.84a51.57,51.57,0,0,1,3.7-9.75,36.73,36.73,0,0,1,4.79-7.69q5.13-5.92,11.28-3.22,5.57,2.26.81,7.62-9,10.18-10.33,39.33-.29,7.24-.07,16.92t.88,18.16L444,92.9,442.6,94a6,6,0,0,1-3.66,1.1,8.28,8.28,0,0,1-4-.95A8.6,8.6,0,0,1,433.59,93.08ZM421.44,52.43c1.17-1.78,1.75-3.13,1.75-4.06a5.66,5.66,0,0,0-1-3q-2.71-5.5-8.57,2.78a42,42,0,0,0-5.86,11,29.29,29.29,0,0,0-2.05,10.76q.15,1.17,1,1.17,1.17,0,8.79-10.4C418.29,57,420.26,54.22,421.44,52.43Z"/></g></svg>